<?xml version="1.0" standalone="no"?>
<!DOCTYPE svg PUBLIC "-//W3C//DTD SVG 20010904//EN"
 "http://www.w3.org/TR/2001/REC-SVG-20010904/DTD/svg10.dtd">
<svg version="1.0" xmlns="http://www.w3.org/2000/svg"
 width="28.000000pt" height="28.000000pt" viewBox="0 0 28.000000 28.000000"
 preserveAspectRatio="xMidYMid meet">

<g transform="translate(0.000000,28.000000) scale(0.100000,-0.100000)"
fill="#ffffff" stroke="none">
<path d="M31 246 c-28 -30 -24 -52 19 -118 31 -47 104 -104 148 -115 16 -4 31
2 48 18 31 29 30 39 -5 73 -25 24 -31 26 -55 15 -24 -11 -30 -10 -53 14 -25
24 -26 28 -13 52 12 23 11 28 -15 55 -35 36 -45 37 -74 6z m62 -58 c-16 -17
-15 -20 3 -45 11 -15 32 -36 47 -47 25 -18 28 -19 45 -3 17 16 20 16 40 -6
l22 -24 -20 -18 c-21 -19 -22 -19 -66 4 -50 27 -97 76 -121 127 -15 31 -15 35
2 54 l18 20 24 -22 c22 -20 22 -23 6 -40z"/>
</g>
</svg>
