<svg width="18" height="18" viewBox="0 0 18 18" fill="none" xmlns="http://www.w3.org/2000/svg">
<path fill-rule="evenodd" clip-rule="evenodd" d="M4.0013 1.70768C3.08083 1.70768 2.33464 2.45387 2.33464 3.37435L2.33464 14.6243C2.33464 15.5448 3.08083 16.291 4.0013 16.291H14.0013C14.9218 16.291 15.668 15.5448 15.668 14.6243V3.37436C15.668 2.45389 14.9218 1.7077 14.0013 1.70769L4.0013 1.70768ZM0.667969 3.37435C0.667969 1.5334 2.16036 0.0410118 4.00131 0.0410156L14.0013 0.0410275C15.8423 0.0410297 17.3346 1.53341 17.3346 3.37436V14.6243C17.3346 16.4653 15.8422 17.9577 14.0013 17.9577H4.0013C2.16035 17.9577 0.667969 16.4653 0.667969 14.6243L0.667969 3.37435ZM12.7513 3.166C13.2115 3.166 13.5846 3.53909 13.5846 3.99933L13.5846 5.24933C13.5846 7.78063 11.5326 9.83266 9.0013 9.83266C6.46999 9.83266 4.41797 7.78063 4.41797 5.24933V3.99933C4.41797 3.53909 4.79106 3.166 5.2513 3.166C5.71154 3.166 6.08463 3.53909 6.08463 3.99933V5.24933C6.08463 6.86016 7.39047 8.166 9.0013 8.166C10.6121 8.166 11.918 6.86016 11.918 5.24933L11.918 3.99933C11.918 3.53909 12.2911 3.166 12.7513 3.166Z" fill="#424551"/>
</svg>
