<svg width="22" height="20" viewBox="0 0 22 20" fill="none" xmlns="http://www.w3.org/2000/svg">
<path fill-rule="evenodd" clip-rule="evenodd" d="M1.10156 0C1.65385 0 2.10156 0.447715 2.10156 1V5.43632C3.75959 2.20928 7.12154 0 11.0015 0C15.3572 0 19.0599 2.78413 20.4323 6.66675C20.6163 7.18747 20.3434 7.75879 19.8227 7.94284C19.302 8.12689 18.7306 7.85396 18.5466 7.33325C17.4479 4.22472 14.4832 2 11.0015 2C8.04152 2 5.45522 3.60799 4.0715 6H7.10153C7.65381 6 8.10153 6.44772 8.10153 7C8.10153 7.55228 7.65381 8 7.10153 8H1.10156C0.549278 8 0.101562 7.55228 0.101562 7V1C0.101562 0.447715 0.549278 0 1.10156 0Z" fill="#424551"/>
<path fill-rule="evenodd" clip-rule="evenodd" d="M2.17859 12.0572C2.69931 11.8731 3.27063 12.146 3.45468 12.6668C4.55339 15.7753 7.51804 18 10.9997 18C13.9597 18 16.546 16.392 17.9298 14H14.8997C14.3475 14 13.8997 13.5523 13.8997 13C13.8997 12.4477 14.3475 12 14.8997 12H20.8997C21.452 12 21.8997 12.4477 21.8997 13V19C21.8997 19.5523 21.452 20 20.8997 20C20.3474 20 19.8997 19.5523 19.8997 19V14.5637C18.2417 17.7907 14.8797 20 10.9997 20C6.6441 20 2.94131 17.2159 1.569 13.3332C1.38495 12.8125 1.65788 12.2412 2.17859 12.0572Z" fill="#424551"/>
</svg>
