<svg width="19" height="16" viewBox="0 0 19 16" fill="none" xmlns="http://www.w3.org/2000/svg">
<path d="M2.19923 5.09822C4.45266 3.21822 7.0469 2.16667 9.79039 2.16667C12.5339 2.16667 15.1281 3.21822 17.3815 5.09822C17.7349 5.39305 18.2604 5.34558 18.5553 4.99218C18.8501 4.63878 18.8026 4.11328 18.4492 3.81845C15.9435 1.72796 12.9816 0.5 9.79039 0.5C6.59918 0.5 3.63727 1.72796 1.13154 3.81845C0.778141 4.11328 0.730665 4.63878 1.0255 4.99218C1.32033 5.34558 1.84583 5.39305 2.19923 5.09822Z" fill="#424551"/>
<path fill-rule="evenodd" clip-rule="evenodd" d="M3.41602 6.07419C4.91479 4.80886 7.0524 3.625 9.47786 3.625C11.9033 3.625 14.0409 4.80886 15.5397 6.07419C16.2952 6.71204 16.9147 7.39204 17.3525 7.99941C17.5709 8.30249 17.7531 8.5999 17.8842 8.87564C18.0047 9.12893 18.1237 9.44858 18.1237 9.77083C18.1237 10.0931 18.0047 10.4127 17.8842 10.666C17.7531 10.9418 17.5709 11.2392 17.3525 11.5423C16.9147 12.1496 16.2952 12.8296 15.5397 13.4675C14.0409 14.7328 11.9033 15.9167 9.47786 15.9167C7.0524 15.9167 4.91479 14.7328 3.41602 13.4675C2.66049 12.8296 2.04103 12.1496 1.60327 11.5423C1.38483 11.2392 1.20264 10.9418 1.07151 10.666C0.951065 10.4127 0.832031 10.0931 0.832031 9.77083C0.832031 9.44858 0.951065 9.12893 1.07151 8.87564C1.20264 8.5999 1.38483 8.30249 1.60327 7.99941C2.04103 7.39204 2.66049 6.71204 3.41602 6.07419ZM2.50461 9.77083C2.51304 9.79905 2.53249 9.85737 2.57666 9.95026C2.65367 10.1122 2.77846 10.3223 2.95535 10.5678C3.30825 11.0574 3.83291 11.6382 4.49117 12.194C5.81997 13.3158 7.58861 14.25 9.47786 14.25C11.3671 14.25 13.1358 13.3158 14.4646 12.194C15.1228 11.6382 15.6475 11.0574 16.0004 10.5678C16.1773 10.3223 16.3021 10.1122 16.3791 9.95026C16.4232 9.85738 16.4427 9.79905 16.4511 9.77083C16.4427 9.74261 16.4232 9.68428 16.3791 9.59141C16.3021 9.42947 16.1773 9.21934 16.0004 8.97392C15.6475 8.48428 15.1228 7.90343 14.4646 7.3477C14.1851 7.11173 13.8861 6.88407 13.5707 6.67166C13.6865 7.05945 13.7487 7.47038 13.7487 7.89583C13.7487 10.2545 11.8366 12.1667 9.47786 12.1667C7.11915 12.1667 5.20703 10.2545 5.20703 7.89583C5.20703 7.47038 5.26924 7.05945 5.38506 6.67166C5.06962 6.88407 4.77067 7.11174 4.49117 7.3477C3.83291 7.90343 3.30825 8.48428 2.95535 8.97392C2.77846 9.21934 2.65367 9.42947 2.57666 9.59141C2.53249 9.68429 2.51304 9.74261 2.50461 9.77083ZM6.8737 7.89583C6.8737 6.45759 8.03962 5.29167 9.47786 5.29167C10.9161 5.29167 12.082 6.45759 12.082 7.89583C12.082 9.33407 10.9161 10.5 9.47786 10.5C8.03962 10.5 6.8737 9.33407 6.8737 7.89583Z" fill="#424551"/>
</svg>
