<svg width="14" height="14" viewBox="0 0 14 14" fill="none" xmlns="http://www.w3.org/2000/svg">
<path d="M13.662 13.6673L13.6654 13.6668V8.77677C13.6654 6.38454 13.1504 4.54176 10.3537 4.54176C9.00925 4.54176 8.10703 5.27954 7.7387 5.97899H7.69981V4.7651H5.04814V13.6668H7.80925V9.25899C7.80925 8.09843 8.02925 6.97621 9.46648 6.97621C10.8826 6.97621 10.9037 8.30065 10.9037 9.33343V13.6673H13.662Z" fill="#787A80"/>
<path d="M0.552028 4.76565H3.31647V13.6673H0.552028V4.76565Z" fill="#787A80"/>
<path d="M1.93314 0.333984C1.04925 0.333984 0.332031 1.05121 0.332031 1.9351C0.332031 2.81898 1.04925 3.55121 1.93314 3.55121C2.81703 3.55121 3.53425 2.81898 3.53425 1.9351C3.5337 1.05121 2.81648 0.333984 1.93314 0.333984Z" fill="#787A80"/>
</svg>
