<svg width="18" height="18" viewBox="0 0 18 18" fill="none" xmlns="http://www.w3.org/2000/svg">
<path d="M12.7487 16.291C13.2089 16.291 13.582 16.6641 13.582 17.1243C13.582 17.5846 13.2089 17.9577 12.7487 17.9577H4.20703C1.90584 17.9577 0.0403609 16.0922 0.0403609 13.791V4.20768C0.0403609 1.90649 1.90584 0.0410156 4.20703 0.0410156H12.7487C13.2089 0.0410156 13.582 0.41411 13.582 0.874349C13.582 1.33459 13.2089 1.70768 12.7487 1.70768L4.20703 1.70768C2.82632 1.70768 1.70703 2.82697 1.70703 4.20768V13.791C1.70703 15.1717 2.82632 16.291 4.20703 16.291H12.7487Z" fill="#424551"/>
<path d="M3.79036 8.99935C3.79036 9.22036 3.87816 9.43232 4.03444 9.58861L7.78444 13.3386C8.10988 13.664 8.63752 13.664 8.96295 13.3386C9.28839 13.0132 9.28839 12.4855 8.96295 12.1601L6.63554 9.83268L17.1237 9.83268C17.5839 9.83268 17.957 9.45959 17.957 8.99935C17.957 8.53911 17.5839 8.16602 17.1237 8.16602L6.63554 8.16602L8.96295 5.83861C9.28839 5.51317 9.28839 4.98553 8.96295 4.66009C8.63752 4.33466 8.10988 4.33466 7.78444 4.66009L4.03444 8.41009C3.87816 8.56637 3.79036 8.77834 3.79036 8.99935Z" fill="#424551"/>
</svg>
